<svg width="154" height="47" viewBox="0 0 154 47" fill="none" xmlns="http://www.w3.org/2000/svg">
<g clip-path="url(#clip0_3_2)">
<path d="M146 0.00146484H8C3.58172 0.00146484 0 3.58319 0 8.00146V38.0015C0 42.4197 3.58172 46.0015 8 46.0015H146C150.418 46.0015 154 42.4197 154 38.0015V8.00146C154 3.58319 150.418 0.00146484 146 0.00146484Z" fill="white" fill-opacity="0.08"/>
<path d="M68.0987 16.896C67.3775 16.896 66.729 16.7284 66.1535 16.3933C65.5852 16.0509 65.1371 15.5809 64.8092 14.9835C64.4887 14.3788 64.3284 13.6976 64.3284 12.9399C64.3284 12.1821 64.4887 11.5046 64.8092 10.9071C65.1298 10.3024 65.5706 9.83249 66.1316 9.49734C66.6999 9.15491 67.341 8.9837 68.055 8.9837C68.8128 8.9837 69.494 9.17313 70.0987 9.55199C70.7107 9.92356 71.1478 10.4299 71.4101 11.0711L70.503 11.2131C70.2699 10.7833 69.9384 10.4481 69.5085 10.2077C69.086 9.95999 68.616 9.83613 68.0987 9.83613C67.5523 9.83613 67.0678 9.96728 66.6452 10.2296C66.2227 10.4918 65.8912 10.8598 65.6507 11.3333C65.4176 11.7996 65.301 12.3351 65.301 12.9399C65.301 13.5519 65.4176 14.0946 65.6507 14.5682C65.8912 15.0345 66.2227 15.3988 66.6452 15.6611C67.0751 15.9161 67.5669 16.0436 68.1206 16.0436C68.667 16.0436 69.1515 15.9197 69.5741 15.672C69.9967 15.4243 70.3245 15.0746 70.5577 14.6229L71.4648 14.7649C71.1952 15.4207 70.7544 15.9416 70.1424 16.3277C69.5377 16.7066 68.8565 16.896 68.0987 16.896Z" fill="white" fill-opacity="0.4"/>
<path d="M76.935 16.7977H75.7765L73.5471 14.3715H73.2083V16.7977H72.334V11.1913H73.2083V13.5409H73.558L75.6563 11.1913H76.7164L74.2684 13.9125L76.935 16.7977Z" fill="white" fill-opacity="0.4"/>
<path d="M79.4438 11.082C80.1141 11.082 80.6423 11.3078 81.0284 11.7596C81.4219 12.204 81.6186 12.8379 81.6186 13.6611V16.7977H81.0284L80.788 15.9124C80.3436 16.5754 79.7243 16.907 78.9301 16.907C78.3618 16.907 77.8956 16.743 77.5313 16.4152C77.1743 16.0873 76.9958 15.6647 76.9958 15.1474C76.9958 14.6156 77.2034 14.193 77.6187 13.8797C78.0413 13.5591 78.646 13.3989 79.4329 13.3989H80.7443C80.7152 12.8889 80.584 12.5027 80.3509 12.2404C80.1177 11.9708 79.8044 11.8361 79.411 11.8361C79.1269 11.8361 78.8682 11.9016 78.6351 12.0328C78.4092 12.1639 78.2344 12.3461 78.1105 12.5792L77.2908 12.4481C77.4511 12.0255 77.7243 11.694 78.1105 11.4536C78.5039 11.2058 78.9484 11.082 79.4438 11.082ZM79.0941 16.1529C79.5822 16.1529 79.9793 15.9926 80.2853 15.672C80.5913 15.3514 80.7443 14.8924 80.7443 14.295V14.1529H79.4438C78.4019 14.1529 77.881 14.4771 77.881 15.1256C77.881 15.4389 77.9903 15.6902 78.2088 15.8797C78.4274 16.0618 78.7225 16.1529 79.0941 16.1529Z" fill="white" fill-opacity="0.4"/>
<path d="M85.8843 14.6666C85.6875 14.7467 85.4617 14.8087 85.2067 14.8524C84.959 14.8961 84.7185 14.9179 84.4854 14.9179C83.837 14.9179 83.3342 14.7394 82.9772 14.3824C82.6202 14.0181 82.4417 13.5045 82.4417 12.8415V11.1913H83.316V12.8415C83.316 13.6939 83.735 14.1201 84.5728 14.1201C84.7914 14.1201 85.0172 14.0983 85.2504 14.0546C85.4835 14.0109 85.6948 13.9453 85.8843 13.8579V11.1913H86.7585V16.7977H85.8843V14.6666Z" fill="white" fill-opacity="0.4"/>
<path d="M90.1914 11.082C90.8617 11.082 91.3899 11.3078 91.7761 11.7596C92.1695 12.204 92.3662 12.8379 92.3662 13.6611V16.7977H91.7761L91.5356 15.9124C91.0912 16.5754 90.4719 16.907 89.6778 16.907C89.1095 16.907 88.6432 16.743 88.2789 16.4152C87.9219 16.0873 87.7434 15.6647 87.7434 15.1474C87.7434 14.6156 87.951 14.193 88.3663 13.8797C88.7889 13.5591 89.3936 13.3989 90.1805 13.3989H91.4919C91.4628 12.8889 91.3316 12.5027 91.0985 12.2404C90.8653 11.9708 90.5521 11.8361 90.1586 11.8361C89.8745 11.8361 89.6158 11.9016 89.3827 12.0328C89.1568 12.1639 88.982 12.3461 88.8581 12.5792L88.0385 12.4481C88.1988 12.0255 88.472 11.694 88.8581 11.4536C89.2516 11.2058 89.696 11.082 90.1914 11.082ZM89.8417 16.1529C90.3298 16.1529 90.7269 15.9926 91.0329 15.672C91.3389 15.3514 91.4919 14.8924 91.4919 14.295V14.1529H90.1914C89.1496 14.1529 88.6286 14.4771 88.6286 15.1256C88.6286 15.4389 88.7379 15.6902 88.9565 15.8797C89.1751 16.0618 89.4701 16.1529 89.8417 16.1529Z" fill="white" fill-opacity="0.4"/>
<path d="M94.9817 16.7977H93.6265V11.1913H94.4789V15.8687H94.6319L97.1018 11.1913H98.457V16.7977H97.6045V12.1202H97.4625L94.9817 16.7977ZM96.0417 10.3935C95.5973 10.3935 95.2257 10.2769 94.927 10.0438C94.6356 9.81063 94.4571 9.45727 94.3915 8.9837H95.1347C95.1784 9.22413 95.2767 9.40627 95.4297 9.53013C95.5827 9.65399 95.7867 9.71592 96.0417 9.71592C96.2967 9.71592 96.5007 9.65399 96.6537 9.53013C96.814 9.40627 96.9124 9.22413 96.9488 8.9837H97.692C97.6337 9.45727 97.4552 9.81063 97.1565 10.0438C96.8577 10.2769 96.4862 10.3935 96.0417 10.3935Z" fill="white" fill-opacity="0.4"/>
<path d="M102.042 16.7977H101.168V11.9891H99.2223V11.1913H103.987V11.9891H102.042V16.7977Z" fill="white" fill-opacity="0.4"/>
<path d="M109.878 13.9781C109.878 14.0728 109.875 14.1639 109.867 14.2513H105.124C105.175 14.8123 105.383 15.2604 105.747 15.5955C106.112 15.9307 106.574 16.0982 107.135 16.0982C107.529 16.0982 107.878 16.0181 108.184 15.8578C108.49 15.6975 108.716 15.4862 108.862 15.2239L109.682 15.3551C109.456 15.8578 109.11 16.2439 108.643 16.5135C108.177 16.7758 107.66 16.907 107.092 16.907C106.531 16.907 106.031 16.7831 105.594 16.5354C105.157 16.2877 104.815 15.9416 104.567 15.4972C104.327 15.0527 104.206 14.55 104.206 13.989C104.206 13.428 104.327 12.9289 104.567 12.4918C104.807 12.0473 105.143 11.7013 105.572 11.4536C106.002 11.2058 106.49 11.082 107.037 11.082C107.583 11.082 108.071 11.2058 108.501 11.4536C108.931 11.7013 109.266 12.0473 109.507 12.4918C109.754 12.9289 109.878 13.4244 109.878 13.9781ZM107.037 11.8688C106.556 11.8688 106.144 12.0182 105.802 12.3169C105.467 12.6084 105.252 13.0018 105.157 13.4972H108.928C108.84 13.0091 108.625 12.6156 108.283 12.3169C107.948 12.0182 107.532 11.8688 107.037 11.8688Z" fill="white" fill-opacity="0.4"/>
<path d="M114.513 16.7977H113.158V11.1913H114.01V15.8687H114.163L116.633 11.1913H117.988V16.7977H117.136V12.1202H116.994L114.513 16.7977Z" fill="white" fill-opacity="0.4"/>
<path d="M122.262 13.9234C122.539 14.0181 122.768 14.1821 122.95 14.4152C123.133 14.6411 123.224 14.9179 123.224 15.2458C123.224 15.5518 123.136 15.8323 122.961 16.0873C122.787 16.3423 122.539 16.5427 122.218 16.6884C121.905 16.8341 121.541 16.907 121.125 16.907C120.557 16.907 120.062 16.7722 119.639 16.5026C119.216 16.233 118.94 15.8651 118.808 15.3988L119.617 15.2677C119.741 15.5591 119.93 15.7777 120.185 15.9234C120.448 16.0618 120.757 16.131 121.114 16.131C121.508 16.131 121.81 16.0509 122.021 15.8906C122.233 15.723 122.338 15.4935 122.338 15.2021C122.338 14.9398 122.24 14.7322 122.043 14.5792C121.847 14.4189 121.537 14.3387 121.114 14.3387H120.338V13.5519H121.114C121.479 13.5519 121.759 13.479 121.956 13.3333C122.153 13.1876 122.251 12.9909 122.251 12.7431C122.251 12.4736 122.142 12.2586 121.923 12.0984C121.705 11.9381 121.435 11.8579 121.114 11.8579C120.816 11.8579 120.546 11.9308 120.306 12.0765C120.073 12.2149 119.898 12.4116 119.781 12.6666L118.961 12.5246C119.129 12.0656 119.41 11.7122 119.803 11.4645C120.196 11.2095 120.644 11.082 121.147 11.082C121.519 11.082 121.854 11.1512 122.153 11.2896C122.459 11.4281 122.699 11.6175 122.874 11.8579C123.049 12.0984 123.136 12.3716 123.136 12.6776C123.136 12.9763 123.056 13.2386 122.896 13.4644C122.736 13.683 122.524 13.836 122.262 13.9234Z" fill="white" fill-opacity="0.4"/>
<path d="M60.996 34V25.54H66.42V26.536H62.244V29.248H66.144V30.244H62.244V34H60.996ZM69.6526 34.108C68.9806 34.108 68.4806 33.92 68.1526 33.544C67.8246 33.168 67.6606 32.616 67.6606 31.888V25.168H68.9206V31.816C68.9206 32.64 69.2606 33.052 69.9406 33.052C70.0446 33.052 70.1366 33.048 70.2166 33.04C70.3046 33.032 70.3966 33.016 70.4926 32.992L70.4686 34.012C70.1806 34.076 69.9086 34.108 69.6526 34.108ZM74.2895 34.108C73.3055 34.108 72.5335 33.832 71.9735 33.28C71.4215 32.728 71.1455 31.964 71.1455 30.988C71.1455 30.356 71.2655 29.804 71.5055 29.332C71.7535 28.86 72.0935 28.496 72.5255 28.24C72.9655 27.976 73.4735 27.844 74.0495 27.844C74.8895 27.844 75.5335 28.112 75.9815 28.648C76.4295 29.176 76.6535 29.88 76.6535 30.76V31.144H72.3095C72.3335 31.808 72.5175 32.312 72.8615 32.656C73.2135 32.992 73.6975 33.16 74.3135 33.16C74.6655 33.16 74.9935 33.112 75.2975 33.016C75.6095 32.912 75.9055 32.744 76.1855 32.512L76.5815 33.34C76.3015 33.588 75.9575 33.78 75.5495 33.916C75.1495 34.044 74.7295 34.108 74.2895 34.108ZM74.0615 28.708C73.5655 28.708 73.1695 28.864 72.8735 29.176C72.5775 29.48 72.3975 29.904 72.3335 30.448H75.6095C75.5855 29.888 75.4415 29.46 75.1775 29.164C74.9135 28.86 74.5415 28.708 74.0615 28.708ZM77.1334 34L79.6534 30.88L77.2774 27.952H78.7294L80.3494 30.04L81.9694 27.952H83.4094L81.0574 30.88L83.5654 34H82.1134L80.3494 31.744L78.5734 34H77.1334ZM86.9409 34.108C86.3409 34.108 85.8209 33.984 85.3809 33.736C84.9409 33.48 84.6009 33.12 84.3609 32.656C84.1209 32.184 84.0009 31.624 84.0009 30.976C84.0009 30.328 84.1209 29.772 84.3609 29.308C84.6009 28.836 84.9409 28.476 85.3809 28.228C85.8209 27.972 86.3409 27.844 86.9409 27.844C87.5409 27.844 88.0609 27.972 88.5009 28.228C88.9489 28.476 89.2929 28.836 89.5329 29.308C89.7809 29.772 89.9049 30.328 89.9049 30.976C89.9049 31.624 89.7809 32.184 89.5329 32.656C89.2929 33.12 88.9489 33.48 88.5009 33.736C88.0609 33.984 87.5409 34.108 86.9409 34.108ZM86.9409 33.16C87.4689 33.16 87.8889 32.976 88.2009 32.608C88.5129 32.24 88.6689 31.696 88.6689 30.976C88.6689 30.256 88.5129 29.716 88.2009 29.356C87.8889 28.988 87.4689 28.804 86.9409 28.804C86.4129 28.804 85.9929 28.988 85.6809 29.356C85.3769 29.716 85.2249 30.256 85.2249 30.976C85.2249 31.696 85.3769 32.24 85.6809 32.608C85.9929 32.976 86.4129 33.16 86.9409 33.16ZM91.2976 34V29.452C91.2976 29.212 91.2896 28.964 91.2736 28.708C91.2656 28.452 91.2496 28.2 91.2256 27.952H92.4016L92.4976 29.02C92.6656 28.62 92.9136 28.324 93.2416 28.132C93.5696 27.94 93.9296 27.844 94.3216 27.844C94.5536 27.844 94.7496 27.868 94.9096 27.916L94.8976 28.996C94.7696 28.948 94.6496 28.916 94.5376 28.9C94.4336 28.884 94.3136 28.876 94.1776 28.876C93.8176 28.876 93.5136 28.956 93.2656 29.116C93.0256 29.268 92.8416 29.476 92.7136 29.74C92.5856 30.004 92.5216 30.288 92.5216 30.592V34H91.2976ZM97.6467 34.084C97.3107 34.084 96.9787 34.012 96.6507 33.868C96.4427 33.788 96.2547 33.672 96.0867 33.52C95.9187 33.36 95.7827 33.172 95.6787 32.956C95.5747 32.732 95.5227 32.484 95.5227 32.212C95.5227 31.788 95.6387 31.448 95.8707 31.192C96.1027 30.936 96.4747 30.76 96.9867 30.664C97.4667 30.552 98.2747 30.496 99.4107 30.496V30.136C99.4107 29.68 99.3067 29.352 99.0987 29.152C98.8987 28.944 98.5947 28.84 98.1867 28.84C97.4987 28.84 96.8147 29.048 96.1347 29.464L95.7627 28.588C96.5547 28.092 97.3787 27.844 98.2347 27.844C99.0587 27.844 99.6587 28.052 100.035 28.468C100.419 28.884 100.611 29.488 100.611 30.28V34H99.4227V33.004C99.2467 33.38 99.0027 33.656 98.6907 33.832C98.3787 34 98.0307 34.084 97.6467 34.084ZM97.8747 33.172C98.2107 33.172 98.4907 33.096 98.7147 32.944C98.9467 32.792 99.1187 32.592 99.2307 32.344C99.3507 32.088 99.4107 31.812 99.4107 31.516V31.204C98.7627 31.204 98.2427 31.228 97.8507 31.276C97.4667 31.316 97.1867 31.404 97.0107 31.54C96.8427 31.676 96.7587 31.88 96.7587 32.152C96.7587 32.328 96.7987 32.496 96.8787 32.656C96.9667 32.808 97.0907 32.932 97.2507 33.028C97.4187 33.124 97.6267 33.172 97.8747 33.172ZM108.5 34.108C107.82 34.108 107.204 34.024 106.652 33.856C106.1 33.68 105.62 33.432 105.212 33.112L105.632 32.128C106.048 32.432 106.48 32.664 106.928 32.824C107.384 32.976 107.908 33.052 108.5 33.052C109.172 33.052 109.664 32.932 109.976 32.692C110.296 32.452 110.456 32.136 110.456 31.744C110.456 31.408 110.344 31.148 110.12 30.964C109.904 30.78 109.52 30.632 108.968 30.52L107.66 30.256C106.884 30.096 106.304 29.832 105.92 29.464C105.544 29.096 105.356 28.6 105.356 27.976C105.356 27.472 105.492 27.028 105.764 26.644C106.036 26.26 106.412 25.964 106.892 25.756C107.38 25.54 107.948 25.432 108.596 25.432C109.196 25.432 109.744 25.52 110.24 25.696C110.744 25.872 111.172 26.124 111.524 26.452L111.116 27.4C110.42 26.792 109.572 26.488 108.572 26.488C107.956 26.488 107.472 26.616 107.12 26.872C106.776 27.128 106.604 27.476 106.604 27.916C106.604 28.268 106.712 28.544 106.928 28.744C107.152 28.944 107.52 29.096 108.032 29.2L109.34 29.452C110.148 29.62 110.744 29.88 111.128 30.232C111.512 30.584 111.704 31.06 111.704 31.66C111.704 32.156 111.572 32.588 111.308 32.956C111.044 33.316 110.672 33.6 110.192 33.808C109.72 34.008 109.156 34.108 108.5 34.108ZM115.447 34.108C114.119 34.108 113.455 33.396 113.455 31.972V28.888H112.279V27.952H113.455V26.356L114.667 26.032V27.952H116.347V28.888H114.667V31.864C114.667 32.32 114.747 32.644 114.907 32.836C115.067 33.02 115.299 33.112 115.603 33.112C115.755 33.112 115.887 33.1 115.999 33.076C116.119 33.044 116.227 33.008 116.323 32.968V33.952C116.203 34.008 116.063 34.048 115.903 34.072C115.743 34.096 115.591 34.108 115.447 34.108ZM119.988 34.108C119.388 34.108 118.868 33.984 118.428 33.736C117.988 33.48 117.648 33.12 117.408 32.656C117.168 32.184 117.048 31.624 117.048 30.976C117.048 30.328 117.168 29.772 117.408 29.308C117.648 28.836 117.988 28.476 118.428 28.228C118.868 27.972 119.388 27.844 119.988 27.844C120.588 27.844 121.108 27.972 121.548 28.228C121.996 28.476 122.34 28.836 122.58 29.308C122.828 29.772 122.952 30.328 122.952 30.976C122.952 31.624 122.828 32.184 122.58 32.656C122.34 33.12 121.996 33.48 121.548 33.736C121.108 33.984 120.588 34.108 119.988 34.108ZM119.988 33.16C120.516 33.16 120.936 32.976 121.248 32.608C121.56 32.24 121.716 31.696 121.716 30.976C121.716 30.256 121.56 29.716 121.248 29.356C120.936 28.988 120.516 28.804 119.988 28.804C119.46 28.804 119.04 28.988 118.728 29.356C118.424 29.716 118.272 30.256 118.272 30.976C118.272 31.696 118.424 32.24 118.728 32.608C119.04 32.976 119.46 33.16 119.988 33.16ZM124.344 34V29.452C124.344 29.212 124.336 28.964 124.32 28.708C124.312 28.452 124.296 28.2 124.272 27.952H125.448L125.544 29.02C125.712 28.62 125.96 28.324 126.288 28.132C126.616 27.94 126.976 27.844 127.368 27.844C127.6 27.844 127.796 27.868 127.956 27.916L127.944 28.996C127.816 28.948 127.696 28.916 127.584 28.9C127.48 28.884 127.36 28.876 127.224 28.876C126.864 28.876 126.56 28.956 126.312 29.116C126.072 29.268 125.888 29.476 125.76 29.74C125.632 30.004 125.568 30.288 125.568 30.592V34H124.344ZM131.594 34.108C130.61 34.108 129.838 33.832 129.278 33.28C128.726 32.728 128.45 31.964 128.45 30.988C128.45 30.356 128.57 29.804 128.81 29.332C129.058 28.86 129.398 28.496 129.83 28.24C130.27 27.976 130.778 27.844 131.354 27.844C132.194 27.844 132.838 28.112 133.286 28.648C133.734 29.176 133.958 29.88 133.958 30.76V31.144H129.614C129.638 31.808 129.822 32.312 130.166 32.656C130.518 32.992 131.002 33.16 131.618 33.16C131.97 33.16 132.298 33.112 132.602 33.016C132.914 32.912 133.21 32.744 133.49 32.512L133.886 33.34C133.606 33.588 133.262 33.78 132.854 33.916C132.454 34.044 132.034 34.108 131.594 34.108ZM131.366 28.708C130.87 28.708 130.474 28.864 130.178 29.176C129.882 29.48 129.702 29.904 129.638 30.448H132.914C132.89 29.888 132.746 29.46 132.482 29.164C132.218 28.86 131.846 28.708 131.366 28.708Z" fill="white" fill-opacity="0.5"/>
<g clip-path="url(#clip1_3_2)">
<path d="M28 9.0773C27.9677 9.07727 27.9355 9.07724 27.9023 9.07721C24.0616 9.08276 20.5461 10.7043 17.8552 13.3952C17.6802 13.5734 17.5205 13.7614 17.3653 13.9571C17.2648 14.0831 17.1604 14.205 17.0556 14.3273C16.6388 14.8276 16.2733 15.3673 15.9504 15.9324C15.9148 15.9946 15.8789 16.0565 15.8427 16.1184C14.6369 18.1822 14.0351 20.5717 14.0331 22.9558C14.0331 23.0042 14.0331 23.0042 14.033 23.0536C14.0386 26.8942 15.6601 30.4097 18.351 33.1006C18.5292 33.2756 18.7172 33.4353 18.9129 33.5906C19.0389 33.691 19.1608 33.7954 19.2831 33.9003C19.7834 34.317 20.3231 34.6826 20.8882 35.0055C20.9504 35.041 21.0124 35.077 21.0742 35.1131C23.1381 36.319 25.5275 36.9207 27.9117 36.9227C27.9439 36.9228 27.9762 36.9228 28.0094 36.9228C31.85 36.9173 35.3655 35.2958 38.0564 32.6048C38.2314 32.4266 38.3911 32.2387 38.5464 32.0429C38.6469 31.917 38.7512 31.7951 38.8561 31.6727C39.2729 31.1725 39.6384 30.6328 39.9613 30.0676C39.9968 30.0055 40.0328 29.9435 40.069 29.8817C41.2748 27.8178 41.8765 25.4284 41.8785 23.0442C41.8786 23.0119 41.8786 22.9797 41.8786 22.9464C41.8731 19.1058 40.2516 15.5903 37.5607 12.8994C37.3824 12.7244 37.1945 12.5647 36.9988 12.4094C36.8728 12.309 36.7509 12.2046 36.6285 12.0998C36.1283 11.683 35.5886 11.3174 35.0235 10.9946C34.9613 10.959 34.8993 10.9231 34.8375 10.8869C32.7736 9.68105 30.3842 9.07932 28 9.0773Z" fill="white" fill-opacity="0.6"/>
<path d="M28 9.0773C27.9677 9.07727 27.9355 9.07724 27.9023 9.07721C24.0616 9.08276 20.5461 10.7043 17.8552 13.3952C17.6802 13.5734 17.5205 13.7614 17.3653 13.9571C17.2648 14.0831 17.1604 14.205 17.0556 14.3273C16.6388 14.8276 16.2733 15.3673 15.9504 15.9324C15.9148 15.9946 15.8789 16.0565 15.8427 16.1184C14.6369 18.1822 14.0351 20.5717 14.0331 22.9558C14.0331 23.0042 14.0331 23.0042 14.033 23.0536C14.0386 26.8942 15.6601 30.4097 18.351 33.1006C18.5292 33.2756 18.7172 33.4353 18.9129 33.5906C19.0389 33.691 19.1608 33.7954 19.2831 33.9003C19.7834 34.317 20.3231 34.6826 20.8882 35.0055C20.9504 35.041 21.0124 35.077 21.0742 35.1131C23.1381 36.319 25.5275 36.9207 27.9117 36.9227C27.9439 36.9228 27.9762 36.9228 28.0094 36.9228C31.85 36.9173 35.3655 35.2958 38.0564 32.6048C38.2314 32.4266 38.3911 32.2387 38.5464 32.0429C38.6469 31.917 38.7512 31.7951 38.8561 31.6727C39.2729 31.1725 39.6384 30.6328 39.9613 30.0676C39.9968 30.0055 40.0328 29.9435 40.069 29.8817C41.2748 27.8178 41.8765 25.4284 41.8785 23.0442C41.8786 23.0119 41.8786 22.9797 41.8786 22.9464C41.8731 19.1058 40.2516 15.5903 37.5607 12.8994C37.3824 12.7244 37.1945 12.5647 36.9988 12.4094C36.8728 12.309 36.7509 12.2046 36.6285 12.0998C36.1283 11.683 35.5886 11.3174 35.0235 10.9946C34.9613 10.959 34.8993 10.9231 34.8375 10.8869C32.7736 9.68105 30.3842 9.07932 28 9.0773ZM32.4606 11.6499C32.4958 11.6647 32.531 11.6795 32.5673 11.6948C33.8636 12.247 35.0619 12.9612 36.0955 13.925C36.1906 14.0127 36.287 14.0973 36.3851 14.1815C36.5642 14.3378 36.7289 14.504 36.8908 14.6779C36.9194 14.7086 36.9481 14.7393 36.9776 14.771C37.2416 15.0576 37.4844 15.3557 37.7161 15.6688C37.7371 15.6968 37.758 15.7248 37.7797 15.7537C39.008 17.4036 39.7306 19.3004 40.0568 21.3218C40.0626 21.3578 40.0685 21.3938 40.0745 21.431C40.2914 22.8494 40.1969 24.3987 39.836 25.7823C39.8253 25.824 39.8145 25.8657 39.8035 25.9086C39.2939 27.8706 38.396 29.6442 37.0243 31.1447C36.9662 31.2089 36.9084 31.2735 36.852 31.3392C36.6709 31.55 36.4813 31.7456 36.278 31.935C36.2472 31.9636 36.2165 31.9923 36.1848 32.0218C35.8983 32.2858 35.6001 32.5286 35.2871 32.7603C35.259 32.7812 35.231 32.8022 35.2021 32.8238C33.6965 33.9448 31.9497 34.6783 30.1088 35.0237C30.0734 35.0304 30.038 35.037 30.0016 35.0439C29.3245 35.1628 28.6425 35.209 27.9558 35.2086C27.8993 35.2086 27.8993 35.2086 27.8416 35.2086C24.8914 35.1994 21.9882 34.0587 19.8112 32.0685C19.7469 32.0104 19.6824 31.9526 19.6166 31.8962C19.4058 31.7151 19.2102 31.5255 19.0209 31.3222C18.9922 31.2914 18.9636 31.2607 18.9341 31.229C18.67 30.9424 18.4273 30.6443 18.1956 30.3312C18.1746 30.3032 18.1536 30.2752 18.132 30.2463C16.4373 27.97 15.7307 25.2774 15.7666 22.47C15.7669 22.4327 15.7672 22.3953 15.7675 22.3568C15.8026 19.6455 17.0449 16.8292 18.8808 14.8604C18.9685 14.7653 19.0531 14.6688 19.1373 14.5707C19.2936 14.3917 19.4598 14.2269 19.6337 14.0651C19.6644 14.0364 19.6952 14.0078 19.7268 13.9782C20.0134 13.7142 20.3115 13.4714 20.6246 13.2398C20.6526 13.2188 20.6806 13.1978 20.7095 13.1762C22.3471 11.957 24.2246 11.2408 26.2279 10.9129C26.2593 10.9076 26.2907 10.9023 26.3231 10.8969C28.3471 10.579 30.5765 10.8492 32.4606 11.6499Z" fill="white" fill-opacity="0.3"/>
<path d="M31.3565 17.0379C30.1315 17.0358 28.9065 17.0342 27.6815 17.0333C27.1128 17.0328 26.544 17.0322 25.9753 17.0312C25.4797 17.0303 24.9842 17.0297 24.4886 17.0295C24.2261 17.0294 23.9635 17.0292 23.701 17.0285C23.4541 17.0279 23.2073 17.0277 22.9604 17.0279C22.8696 17.0278 22.7788 17.0277 22.6879 17.0273C22.5644 17.0269 22.4408 17.027 22.3173 17.0272C22.2809 17.027 22.2446 17.0267 22.2071 17.0265C21.9596 17.0278 21.9596 17.0278 21.8612 17.1262C21.8793 17.2802 21.9544 17.412 22.0232 17.5492C22.0478 17.5986 22.0724 17.6479 22.0978 17.6988C22.1247 17.7524 22.1517 17.806 22.1786 17.8596C22.2062 17.9146 22.2337 17.9697 22.2613 18.0248C22.3189 18.1401 22.3767 18.2553 22.4346 18.3704C22.5089 18.5182 22.5829 18.6662 22.6569 18.8142C22.7137 18.9278 22.7707 19.0414 22.8276 19.155C22.855 19.2096 22.8823 19.2642 22.9096 19.3187C22.9477 19.3948 22.9859 19.4708 23.0241 19.5468C23.0459 19.5901 23.0676 19.6334 23.09 19.678C23.1419 19.776 23.1419 19.776 23.1861 19.8202C23.257 19.8243 23.328 19.8254 23.399 19.8252C23.4444 19.8251 23.4898 19.8251 23.5366 19.8251C23.5863 19.8248 23.636 19.8245 23.6873 19.8242C23.7388 19.824 23.7903 19.8238 23.8434 19.8237C24.4111 19.8211 24.9786 19.8116 25.5461 19.8009C25.5993 19.7999 25.6525 19.7989 25.7073 19.7979C26.5895 19.7818 27.4714 19.7607 28.3533 19.7319C28.3636 19.7825 28.3739 19.8332 28.3845 19.8854C28.4285 20.0834 28.4825 20.2779 28.5388 20.4726C28.5476 20.5033 28.5564 20.534 28.5656 20.5656C28.6026 20.694 28.6398 20.8224 28.6775 20.9506C28.7052 21.0451 28.7324 21.1398 28.7596 21.2345C28.7682 21.2635 28.7769 21.2924 28.7858 21.3223C28.8265 21.4655 28.8432 21.5303 28.7949 21.6751C27.2792 21.6897 25.7635 21.7042 24.2019 21.7192C24.1727 21.7775 24.1436 21.8358 24.1136 21.8959C24.1452 21.9865 24.1452 21.9865 24.2053 22.0831C24.2273 22.119 24.2492 22.1548 24.2718 22.1918C24.2961 22.2299 24.3204 22.2679 24.3454 22.3072C24.37 22.3468 24.3945 22.3864 24.4198 22.4273C24.5801 22.6844 24.7464 22.9374 24.9171 23.1878C25.1011 23.4598 25.2677 23.7419 25.4336 24.0252C25.4547 24.0609 25.4758 24.0966 25.4975 24.1334C25.5159 24.1651 25.5344 24.1967 25.5534 24.2293C25.584 24.2766 25.584 24.2766 25.6151 24.3249C25.639 24.3651 25.6628 24.4054 25.6874 24.4468C25.7918 24.5457 25.7918 24.5457 25.9615 24.5644C26.0301 24.5617 26.0987 24.5581 26.1672 24.5537C26.2427 24.5518 26.3182 24.5501 26.3937 24.5485C26.512 24.5449 26.6299 24.5403 26.748 24.5332C27.1979 24.4971 27.1979 24.4971 27.6036 24.6559C27.8042 24.8549 27.9621 25.0882 28.0883 25.3407C27.5345 25.3407 26.9807 25.3407 26.4101 25.3407C26.3809 25.399 26.3518 25.4573 26.3218 25.5174C26.3555 25.5556 26.3892 25.5939 26.4239 25.6333C26.5596 25.7913 26.6879 25.9547 26.8158 26.1191C27.0005 26.356 27.1906 26.587 27.3856 26.8154C27.532 26.9871 27.674 27.1615 27.8142 27.3383C27.9368 27.4921 28.0608 27.6447 28.1849 27.7973C28.2095 27.8275 28.234 27.8576 28.2593 27.8887C28.3097 27.9507 28.3601 28.0126 28.4105 28.0746C28.5313 28.2232 28.6521 28.3718 28.7729 28.5205C28.8207 28.5794 28.8686 28.6383 28.9164 28.6972C28.9401 28.7263 28.9638 28.7555 28.9882 28.7855C29.0599 28.8738 29.1317 28.9622 29.2035 29.0505C29.2272 29.0796 29.2509 29.1088 29.2753 29.1389C29.323 29.1976 29.3707 29.2563 29.4184 29.315C29.5402 29.4649 29.662 29.6149 29.7838 29.7649C30.0933 30.146 30.4031 30.5269 30.7152 30.9059C30.7689 30.9712 30.7689 30.9712 30.8237 31.0379C30.856 31.077 30.8883 31.1162 30.9215 31.1566C31.0076 31.2613 31.0076 31.2613 31.0915 31.3912C31.246 31.4077 31.246 31.4077 31.4006 31.3912C31.489 31.2587 31.489 31.2587 31.4835 31.1712C31.4756 31.1374 31.4677 31.1036 31.4596 31.0687C31.4463 31.0098 31.4463 31.0098 31.4327 30.9498C31.4168 30.8841 31.4168 30.8841 31.4006 30.817C31.3895 30.7691 31.3783 30.7211 31.3669 30.6717C31.3292 30.5111 31.2905 30.3508 31.2516 30.1905C31.2447 30.162 31.2378 30.1336 31.2307 30.1043C31.1222 29.6561 31.0063 29.2106 30.8854 28.7657C30.8533 28.6464 30.8219 28.5269 30.7906 28.4073C30.7804 28.37 30.7702 28.3326 30.7596 28.2941C30.7504 28.2585 30.7412 28.223 30.7318 28.1863C30.7234 28.1549 30.7151 28.1235 30.7065 28.0912C30.6857 27.9628 30.6857 27.9628 30.7382 27.7256C31.0879 27.7256 31.4377 27.7256 31.7981 27.7256C31.7153 27.0994 31.5658 26.4873 31.4267 25.8718C31.3933 25.7238 31.3602 25.5757 31.3271 25.4276C31.3116 25.3596 31.3116 25.3596 31.2958 25.2902C31.2863 25.2479 31.2769 25.2055 31.2672 25.1619C31.2588 25.1249 31.2504 25.0879 31.2418 25.0497C31.2012 24.8362 31.2012 24.8362 31.2794 24.6438C31.4169 24.5477 31.5855 24.564 31.7481 24.5592C31.8058 24.5567 31.8058 24.5567 31.8647 24.5541C31.9879 24.5489 32.111 24.5445 32.2342 24.5402C32.3571 24.5354 32.4799 24.5305 32.6028 24.5254C32.6792 24.5222 32.7556 24.5193 32.8321 24.5167C33.0072 24.5099 33.1728 24.4994 33.3438 24.4574C33.0945 23.3861 33.0945 23.3861 32.9387 22.8755C32.8674 22.64 32.8062 22.4027 32.7476 22.1636C32.6718 21.8547 32.5913 21.5476 32.505 21.2414C32.4253 20.9578 32.3489 20.6734 32.2729 20.3888C32.1626 19.9763 32.0481 19.5652 31.9315 19.1545C31.923 19.1246 31.9145 19.0947 31.9058 19.0639C31.8973 19.0341 31.8889 19.0044 31.8801 18.9737C31.7538 18.5282 31.6354 18.0813 31.5265 17.6311C31.5169 17.5914 31.5073 17.5518 31.4974 17.5109C31.4852 17.4599 31.4852 17.4599 31.4728 17.4078C31.4394 17.2825 31.3978 17.1607 31.3565 17.0379Z" fill="white" fill-opacity="0.6"/>
<path d="M25.9961 10.957C25.94 10.9669 25.8839 10.9768 25.8262 10.987C25.4263 11.0588 25.0341 11.1402 24.6435 11.2524C24.5906 11.2671 24.5377 11.2817 24.4831 11.2969C23.2144 11.6694 22.0076 12.248 20.9338 13.0189C20.9088 13.0367 20.8839 13.0544 20.8582 13.0727C18.5949 14.6922 16.8131 17.1398 16.164 19.8644C16.1548 19.9022 16.1455 19.94 16.136 19.979C15.7634 21.5088 15.6417 23.0672 15.8549 24.6341C15.8601 24.6731 15.8653 24.7121 15.8707 24.7523C16.3076 27.8759 18.034 30.7981 20.5461 32.7012C20.9831 33.0297 21.4284 33.3317 21.9054 33.5994C21.9597 33.63 21.9597 33.63 22.0152 33.6612C24.3968 34.9857 27.2031 35.5246 29.8991 35.0568C29.9451 35.049 29.991 35.0412 30.0384 35.0331C30.6561 34.9255 31.2517 34.781 31.8423 34.571C31.878 34.5585 31.9136 34.5461 31.9504 34.5333C34.717 33.5596 37.1152 31.6169 38.5552 29.0505C38.5858 28.9961 38.5858 28.9961 38.617 28.9406C39.3997 27.5332 39.9138 25.9703 40.101 24.3691C40.1054 24.3326 40.1098 24.2961 40.1144 24.2585C40.1561 23.8685 40.1559 23.4774 40.1562 23.0856C40.1562 23.0485 40.1562 23.0115 40.1562 22.9733C40.1531 20.4709 39.4014 18.0177 37.9369 15.9779C37.9192 15.953 37.9014 15.9281 37.8832 15.9024C36.2952 13.6832 33.8766 11.8798 31.2014 11.2347C31.1219 11.2155 31.0424 11.1958 30.9631 11.1758C29.3375 10.7662 27.6529 10.6614 25.9961 10.957ZM30.2524 11.7382C30.2907 11.745 30.3291 11.7519 30.3686 11.7589C30.5977 11.8011 30.8225 11.8538 31.0473 11.9148C31.0851 11.925 31.1229 11.9352 31.1618 11.9456C32.9281 12.4308 34.6625 13.2888 35.9937 14.5647C36.0238 14.593 36.0539 14.6214 36.085 14.6506C36.2883 14.8472 36.4678 15.0586 36.6444 15.2794C36.7071 15.3574 36.7709 15.4345 36.8363 15.5102C38.0479 16.9261 38.8417 18.7258 39.2618 20.5268C39.2695 20.5589 39.2772 20.5909 39.2851 20.624C39.7639 22.6807 39.6266 24.9326 38.9507 26.9268C38.9167 27.0275 38.8836 27.1284 38.8505 27.2293C38.7071 27.6607 38.5359 28.069 38.3344 28.4763C38.3047 28.5375 38.3047 28.5375 38.2744 28.5999C37.8593 29.4451 37.3461 30.2257 36.7445 30.9495C36.7239 30.9746 36.7033 30.9996 36.6821 31.0255C35.4381 32.5362 33.8557 33.5119 32.0189 34.1735C31.9741 34.1902 31.9741 34.1902 31.9285 34.2072C29.9367 34.9491 27.5599 35.0771 25.4902 34.5933C25.4035 34.5731 25.3165 34.5544 25.2294 34.5358C24.408 34.349 23.5306 34.0798 22.7838 33.6871C22.6858 33.636 22.5867 33.5872 22.4876 33.5383C21.4756 33.0317 20.6036 32.3889 19.7855 31.612C19.7489 31.5773 19.7124 31.5426 19.6747 31.5069C19.463 31.3008 19.2733 31.0825 19.0891 30.8515C19.027 30.7741 18.9637 30.6976 18.8989 30.6224C18.3561 29.9883 17.9146 29.2611 17.5331 28.5205C17.5164 28.4881 17.4996 28.4557 17.4823 28.4224C17.1787 27.8285 16.9488 27.2095 16.7382 26.5773C16.723 26.5319 16.7079 26.4865 16.6922 26.4398C16.5748 26.0746 16.4938 25.7064 16.4235 25.3297C16.4178 25.2994 16.4121 25.2691 16.4063 25.2379C16.3686 25.0368 16.3323 24.8355 16.2965 24.6341C16.2898 24.5972 16.283 24.5603 16.2761 24.5223C16.0478 23.2307 16.1569 21.7163 16.4505 20.4493C16.4721 20.3551 16.492 20.2607 16.5115 20.1661C16.8292 18.6679 17.4757 17.3958 18.4164 16.1987C18.4504 16.1553 18.4844 16.1119 18.5194 16.0671C18.7787 15.7434 19.0584 15.4394 19.3439 15.1388C19.3785 15.1023 19.4132 15.0657 19.4489 15.0281C19.6551 14.8163 19.8734 14.6267 20.1043 14.4424C20.1817 14.3803 20.2582 14.317 20.3334 14.2522C20.9676 13.7094 21.6947 13.2679 22.4353 12.8864C22.4677 12.8697 22.5001 12.8529 22.5335 12.8356C24.2054 11.9809 26.0899 11.5411 27.9641 11.545C28.0043 11.545 28.0445 11.5449 28.0859 11.5449C28.8206 11.5463 29.5285 11.606 30.2524 11.7382Z" fill="white" fill-opacity="0.1"/>
<path d="M26.0568 25.5615C26.0131 25.6489 26.0131 25.6489 25.9685 25.7382C26.0174 25.7943 26.0174 25.7943 26.0673 25.8517C26.3173 26.1402 26.5609 26.4321 26.7951 26.7336C26.9813 26.9728 27.1737 27.2066 27.3669 27.4402C27.543 27.6532 27.7182 27.867 27.8924 28.0816C27.9159 28.1106 27.9394 28.1396 27.9636 28.1694C28.0109 28.2278 28.0583 28.2862 28.1056 28.3445C28.201 28.4621 28.2964 28.5796 28.3919 28.6971C28.4397 28.7559 28.4875 28.8148 28.5353 28.8736C28.6559 29.0221 28.7765 29.1704 28.8974 29.3185C29.1253 29.598 29.3517 29.8784 29.5733 30.1628C29.7512 30.391 29.935 30.6132 30.1228 30.8332C30.446 31.2107 30.446 31.2107 30.7382 31.612C30.8983 31.6203 30.8983 31.6203 31.0473 31.612C31.1043 31.5193 31.1043 31.5193 31.1357 31.3912C31.072 31.2824 31.0128 31.2009 30.9314 31.1068C30.8981 31.0665 30.8981 31.0665 30.8641 31.0253C30.7936 30.9404 30.7219 30.8565 30.6498 30.7729C30.6275 30.7468 30.6052 30.7207 30.5823 30.6938C30.4944 30.5911 30.4063 30.4884 30.3177 30.3862C30.1464 30.188 29.9838 29.9841 29.8231 29.7772C29.6369 29.5381 29.4445 29.3043 29.2514 29.0708C29.0753 28.8578 28.9001 28.644 28.726 28.4294C28.7024 28.4004 28.6789 28.3715 28.6547 28.3416C28.6074 28.2832 28.56 28.2249 28.5127 28.1665C28.3934 28.0194 28.274 27.8725 28.1546 27.7255C28.1067 27.6667 28.0589 27.6078 28.011 27.5489C27.724 27.1956 27.724 27.1956 27.6521 27.1071C27.6046 27.0486 27.5571 26.9901 27.5096 26.9317C27.385 26.7784 27.2605 26.6251 27.1359 26.4719C27.11 26.4401 27.0842 26.4083 27.0576 26.3755C27.0083 26.3149 26.959 26.2543 26.9097 26.1937C26.8873 26.1662 26.865 26.1386 26.8419 26.1103C26.8208 26.0843 26.7997 26.0584 26.778 26.0317C26.7252 25.9664 26.6731 25.9006 26.6211 25.8348C26.4503 25.6246 26.3328 25.5358 26.0568 25.5615Z" fill="white" fill-opacity="0.6"/>
<path d="M21.748 17.2559C21.6979 17.2568 21.6478 17.2577 21.5962 17.2587C21.5454 17.3311 21.5454 17.3311 21.5079 17.4353C21.5456 17.5535 21.5456 17.5535 21.6147 17.6898C21.6402 17.741 21.6657 17.7921 21.692 17.8448C21.7206 17.9003 21.7492 17.9558 21.7779 18.0114C21.8067 18.0684 21.8354 18.1255 21.8641 18.1826C21.9397 18.3328 22.0163 18.4826 22.0929 18.6323C22.1555 18.7548 22.2175 18.8776 22.2795 19.0004C22.4072 19.2538 22.5355 19.5069 22.6646 19.7595C22.6876 19.8044 22.7105 19.8492 22.7341 19.8955C22.7886 19.9969 22.7886 19.9969 22.8328 20.041C22.8934 20.0455 22.9543 20.0468 23.0151 20.0469C23.0764 20.047 23.0764 20.047 23.139 20.0471C23.2086 20.0468 23.2086 20.0468 23.2796 20.0465C23.3294 20.0464 23.3792 20.0463 23.4304 20.0462C24.2614 20.0419 25.0922 20.0194 25.9229 20.0001C26.1578 19.9946 26.3926 19.9894 26.6275 19.9841C27.085 19.9738 27.5425 19.9633 28 19.9527C28.01 20.0145 28.01 20.0145 28.0201 20.0777C28.0427 20.2091 28.0737 20.3321 28.1114 20.4599C28.1246 20.5049 28.1379 20.5498 28.1515 20.5962C28.1721 20.6657 28.1721 20.6657 28.1932 20.7366C28.2134 20.8051 28.2134 20.8051 28.2339 20.875C28.3169 21.1567 28.4011 21.438 28.4858 21.7192C28.5878 21.7192 28.6898 21.7192 28.7949 21.7192C28.8451 21.6547 28.8451 21.6547 28.8833 21.5426C28.8573 21.4109 28.8266 21.2905 28.7872 21.1629C28.7764 21.1262 28.7656 21.0895 28.7544 21.0517C28.7198 20.9345 28.6842 20.8176 28.6486 20.7007C28.6252 20.6218 28.6017 20.5429 28.5783 20.4639C28.4228 19.9405 28.4228 19.9405 28.3533 19.7319C27.314 19.7248 26.2756 19.7389 25.2365 19.7603C24.553 19.7741 23.8698 19.7788 23.1861 19.776C23.1707 19.7451 23.1553 19.7143 23.1395 19.6824C22.9946 19.3919 22.8497 19.1014 22.7047 18.8109C22.6301 18.6616 22.5556 18.5122 22.4812 18.3628C22.4094 18.2188 22.3375 18.0747 22.2656 17.9307C22.2381 17.8757 22.2106 17.8206 22.1832 17.7655C22.1449 17.6886 22.1065 17.6118 22.068 17.5349C22.0462 17.4911 22.0243 17.4472 22.0018 17.402C21.9264 17.2591 21.9264 17.2591 21.748 17.2559Z" fill="white" fill-opacity="0.6"/>
<path d="M23.9857 21.9152C23.8486 21.9401 23.8486 21.9401 23.7966 22.0138C23.7602 22.1167 23.7602 22.1167 23.8053 22.2268C23.8314 22.2678 23.8575 22.3088 23.8845 22.351C23.9135 22.3973 23.9425 22.4436 23.9724 22.4912C24.0047 22.5412 24.037 22.5912 24.0694 22.6412C24.102 22.6926 24.1345 22.7441 24.167 22.7957C24.2502 22.9272 24.3341 23.0583 24.4183 23.1892C24.493 23.3057 24.567 23.4228 24.6409 23.5398C24.7645 23.7349 24.8886 23.9297 25.0132 24.1241C25.0657 24.2062 25.1179 24.2884 25.17 24.3707C25.212 24.4369 25.212 24.4369 25.2547 24.5045C25.2804 24.5451 25.306 24.5856 25.3324 24.6274C25.3943 24.7224 25.3943 24.7224 25.4385 24.7666C25.5611 24.7676 25.683 24.7661 25.8056 24.7635C25.8821 24.763 25.9587 24.7626 26.0352 24.7624C26.156 24.7621 26.2766 24.7611 26.3974 24.7576C26.8773 24.7294 26.8773 24.7294 27.2946 24.9211C27.3984 25.0511 27.3984 25.0511 27.4742 25.189C27.5583 25.2965 27.5583 25.2965 27.7047 25.3276C27.8359 25.327 27.9591 25.3182 28.0883 25.2965C28.0506 25.2459 28.0129 25.1953 27.9751 25.1447C27.9541 25.1165 27.9331 25.0884 27.9115 25.0593C27.8679 25.0019 27.8679 25.0019 27.8233 24.9432C27.7991 24.8928 27.7991 24.8928 27.7745 24.8414C27.699 24.7083 27.6409 24.6334 27.5142 24.5457C27.2777 24.5008 27.0283 24.5362 26.7899 24.5526C26.201 24.5976 26.201 24.5976 25.658 24.4173C25.4513 24.1962 25.3349 23.9333 25.2248 23.6542C25.1525 23.4792 25.0546 23.3281 24.9499 23.1711C24.9149 23.1159 24.88 23.0606 24.8454 23.0052C24.8185 22.9625 24.8185 22.9625 24.7911 22.9189C24.7222 22.8078 24.6552 22.6956 24.588 22.5835C24.5375 22.5015 24.487 22.4195 24.4365 22.3375C24.4019 22.2784 24.4019 22.2784 24.3665 22.2181C24.1962 21.9456 24.1962 21.9456 23.9857 21.9152Z" fill="white" fill-opacity="0.6"/>
<path d="M32.9464 24.5016C32.5514 24.4966 32.157 24.5004 31.7622 24.5154C31.724 24.5164 31.6858 24.5173 31.6464 24.5184C31.6106 24.5199 31.5747 24.5215 31.5378 24.5231C31.506 24.5243 31.4742 24.5254 31.4414 24.5266C31.3333 24.5509 31.2915 24.5917 31.224 24.6782C31.224 24.7074 31.224 24.7365 31.224 24.7665C31.8161 24.7839 32.4012 24.7308 32.9905 24.6782C32.976 24.6199 32.9614 24.5616 32.9464 24.5016Z" fill="white" fill-opacity="0.6"/>
<path d="M31.4006 27.7256C31.182 27.7256 30.9634 27.7256 30.7382 27.7256C30.709 27.7984 30.6799 27.8713 30.6498 27.9464C30.9122 27.9464 31.1745 27.9464 31.4448 27.9464C31.4302 27.8735 31.4156 27.8006 31.4006 27.7256Z" fill="white" fill-opacity="0.6"/>
</g>
</g>
<defs>
<clipPath id="clip0_3_2">
<rect width="154" height="47" fill="white"/>
</clipPath>
<clipPath id="clip1_3_2">
<rect width="28" height="28" fill="white" transform="matrix(-1 0 0 1 42 9)"/>
</clipPath>
</defs>
</svg>
